HIERARCHY
ROOT Hips
{
 OFFSET 0.000000 0.000000 0.000000
 CHANNELS 6 Xposition Yposition Zposition Zrotation Xrotation Yrotation
 JOINT Chest
 {
  OFFSET 0.000000 4.000000 0.000000
  CHANNELS 3 Zrotation Xrotation Yrotation
  JOINT Head
  {
   OFFSET 0.000000 24.803150 0.000000
   CHANNELS 3 Zrotation Xrotation Yrotation
   End Site
   {
    OFFSET 0.000000 9.448819 0.000000
   }
  }
  JOINT LeftUpArm
  {
   OFFSET 7.086614 23.228346 0.000000
   CHANNELS 3 Zrotation Xrotation Yrotation
   JOINT LeftLowArm
   {
    OFFSET 0.000000 -11.811024 0.000000
    CHANNELS 3 Zrotation Xrotation Yrotation
    End Site
    {
     OFFSET 0.000000 -11.811024 0.000000
    }
   }
  }
  JOINT RightUpArm
  {
   OFFSET -7.086614 23.228346 0.000000
   CHANNELS 3 Zrotation Xrotation Yrotation
   JOINT RightLowArm
   {
    OFFSET 0.000000 -11.811024 0.000000
    CHANNELS 3 Zrotation Xrotation Yrotation
    End Site
    {
     OFFSET 0.000000 -11.811024 0.000000
    }
   }
  }
 }
 JOINT LeftUpLeg
 {
  OFFSET 3.937008 0.000000 0.000000
  CHANNELS 3 Zrotation Xrotation Yrotation
  JOINT LeftLowLeg
  {
   OFFSET 0.000000 -16.929134 0.000000
   CHANNELS 3 Zrotation Xrotation Yrotation
   End Site
   {
    OFFSET 0.000000 -19.685040 0.000000
   }
  }
 }
 JOINT RightUpLeg
 {
  OFFSET -3.937008 0.000000 0.000000
  CHANNELS 3 Zrotation Xrotation Yrotation
  JOINT RightLowLeg
  {
   OFFSET 0.000000 -16.929134 0.000000
   CHANNELS 3 Zrotation Xrotation Yrotation
   End Site
   {
    OFFSET 0.000000 -19.685040 0.000000
   }
  }
 }
}
MOTION
Frames: 24      
Frame Time: 0.033333
-126.531204 3.823359 50.081608 -8.847141 2.458996 100.766930 -2.696131 9.884682 3.522465 -5.968200 -1.065991 45.890530 83.864395 -35.325668 44.772194 3.506601 -1.509849 -7.631279 -11.755650 5.350791 -10.388116 -1.230168 -4.587121 14.613215 1.670690 -10.793145 3.897547 -2.964762 24.328833 -6.659044 -7.876197 -40.943314 -15.201401 -5.809961 31.512737 -0.570045
-125.520432 3.612415 50.204659 -8.857983 2.841616 100.961082 -2.721663 9.860073 3.680392 -6.183151 -1.059814 46.187294 83.609947 -34.931751 44.560314 3.502795 -1.036146 -7.574249 -11.800033 5.887301 -11.277069 -1.510894 -4.284029 15.054502 1.511222 -8.844599 3.666430 -2.759588 23.984472 -6.842209 -7.737897 -40.687389 -15.037014 -7.472711 27.030890 1.081059
-123.252785 3.199317 50.617756 -8.564378 3.519189 101.608063 -2.577469 9.934000 3.864369 -6.868636 -0.846880 47.124577 82.952477 -33.960735 44.016224 3.467246 -0.239547 -7.380857 -11.931851 6.731482 -12.635421 -1.387459 -3.138019 15.705102 1.897711 -5.026257 3.444851 -2.432727 24.721403 -7.523049 -7.518202 -39.747520 -13.895494 -8.397198 21.445740 3.540034
-122.048645 3.049898 50.793541 -8.328685 3.690601 102.043381 -2.329317 10.010080 3.973850 -7.289422 -0.769749 47.691586 82.484917 -33.446106 43.812588 3.381745 0.077003 -7.215649 -11.974634 6.922387 -13.273964 -1.331445 -2.563613 16.073536 2.716582 -3.857843 3.387436 -2.379857 26.558905 -7.709603 -7.339914 -38.901028 -12.930969 -7.779586 21.040287 4.401406
-119.578842 2.997162 51.189064 -7.879419 3.727295 103.003593 -1.766295 9.964093 3.907817 -8.015703 -0.604447 48.953236 81.375450 -32.055885 43.494682 3.385794 0.452768 -6.963110 -11.885095 7.032449 -13.782726 -1.282824 -1.704862 16.070517 4.462409 -3.428552 3.794363 -1.477713 33.136375 -8.695799 -6.978106 -37.778561 -10.395206 -6.463840 24.191118 5.241746
-118.304390 3.049898 51.338482 -7.884810 3.619740 103.712906 -1.579213 9.778916 3.707999 -8.199824 -0.596820 49.507553 80.920860 -31.274189 43.416695 3.364734 0.486046 -6.883101 -11.660697 6.881944 -13.737830 -1.289534 -1.617022 16.304749 5.274109 -4.225293 4.116928 -0.314573 37.589802 -10.348326 -6.948521 -37.150387 -9.932178 -5.923739 26.909775 5.133472
-115.817009 3.331156 51.558212 -8.316333 3.090508 105.745636 -1.047980 9.456378 2.853673 -8.481237 -1.056327 49.916306 80.214516 -30.158421 43.527084 3.524508 0.708595 -6.906712 -11.838530 5.896898 -12.827416 -1.377817 -2.171214 15.840375 5.789320 -8.624236 3.363241 3.884279 48.358871 -14.510455 -6.564017 -35.825626 -10.859932 -5.428166 31.076469 5.178705
-114.674400 3.471786 51.725212 -8.778771 2.823786 106.844780 -0.907987 9.083734 2.210360 -8.509325 -1.167562 50.402866 79.953102 -29.547112 43.422668 3.628727 0.755411 -6.718095 -12.076980 5.182284 -11.964266 -1.166926 -2.761782 15.288753 5.348359 -11.750828 1.984965 6.298381 53.766247 -16.424555 -6.467509 -35.341415 -11.389720 -5.349033 32.696636 3.765561
-113.496628 3.638783 51.751579 -9.102501 2.592286 107.528900 -0.765323 9.017011 2.188987 -8.576996 -1.422500 50.471462 79.816071 -29.219023 43.424633 3.663925 0.951515 -6.635597 -12.851307 4.096099 -10.685563 -1.425430 -3.908729 14.316459 4.201050 -14.954832 0.068115 9.291989 58.830257 -18.474234 -5.807923 -34.222591 -11.752928 -5.096171 33.499859 2.397250
-111.545395 3.876095 51.848263 -9.728724 2.345348 108.194084 -0.763480 8.644790 2.282556 -8.812570 -1.465885 51.213833 79.409088 -28.198277 43.256165 3.622931 0.991934 -6.521968 -14.550187 1.822197 -8.261757 -1.459214 -6.770361 16.197243 1.587613 -21.349426 -5.989256 9.361145 66.459076 -16.774601 -4.836308 -31.779493 -11.824830 -3.775087 32.926991 -0.370188
-110.499466 3.928831 51.857052 -10.057051 2.435399 108.146141 -0.980620 8.537127 2.858239 -9.133110 -1.538192 51.424545 79.154915 -27.719175 43.138386 3.533205 0.817134 -6.478495 -15.596135 0.139292 -6.867793 -0.476038 -7.336639 14.548269 0.255725 -25.353432 -8.285810 9.424426 69.446068 -16.813271 -4.122655 -29.866659 -11.150041 -3.268933 31.590561 -1.774307
-108.618546 4.122196 51.997681 -10.630340 2.447497 107.465401 -1.368395 8.357689 4.184282 -9.599282 -1.591715 52.460876 78.888161 -26.687832 43.173336 3.534405 0.662468 -6.542949 -17.055819 -2.590711 -4.857709 0.280344 -9.368145 11.947254 -2.068982 -31.817747 -10.642097 9.817984 70.572296 -18.468451 -3.126973 -27.159485 -10.541540 -2.428186 29.479988 -2.862381
-107.493515 4.201300 52.032837 -10.945811 2.448656 107.226273 -1.716799 8.348996 4.945007 -9.765688 -1.789916 53.017395 79.008034 -26.441774 43.323971 3.723815 0.769691 -6.675141 -17.747398 -4.283738 -4.221658 0.203845 -11.695910 10.836422 -3.618016 -35.839108 -12.343594 8.358439 69.806137 -18.441383 -2.710928 -25.480547 -11.014252 -2.145921 28.348429 -2.899537
-105.551071 4.122196 52.059204 -11.376435 2.444535 106.897491 -2.089388 8.277976 5.862983 -9.821324 -2.237419 54.032356 79.202782 -25.315813 43.313278 3.723996 0.850701 -6.500247 -18.844917 -6.669517 -3.122561 1.260383 -15.087724 9.249228 -6.480967 -40.035133 -14.792784 2.409984 64.343010 -13.577477 -1.798542 -22.567923 -11.831052 -1.806642 26.472546 -2.693652
-104.302986 3.972777 51.962524 -11.581762 2.510961 106.609940 -2.218460 8.263062 6.603008 -10.063800 -2.367157 54.864651 79.257820 -24.822367 43.452862 3.732661 1.095879 -6.573531 -19.827925 -8.287792 -2.430711 1.681346 -17.697884 8.263214 -7.865816 -41.870335 -15.584653 -1.265380 58.159737 -10.500306 -1.139551 -20.526436 -11.914660 -1.617838 25.445320 -2.663272
-103.213112 3.876095 51.971313 -11.724283 2.589715 106.591835 -2.475008 8.117944 6.880491 -10.127999 -2.513618 55.439068 79.497093 -24.013641 43.429871 3.585070 1.196645 -6.441559 -20.172852 -9.568042 -1.662818 2.015537 -19.417715 7.615428 -8.726523 -42.610214 -16.162649 -4.296699 51.902714 -7.607830 -0.792743 -18.806293 -12.049356 -1.278926 24.852098 -2.812752
-101.279457 3.436628 52.076786 -11.846662 2.921086 106.152840 -3.019118 7.919402 7.953655 -10.405372 -2.416134 56.213356 79.778770 -22.802238 43.585396 3.540566 1.381296 -6.405723 -20.987518 -11.141831 -0.800751 1.979375 -21.845800 6.625417 -9.959620 -43.155285 -17.048584 -7.478748 40.841927 -3.475767 -0.211600 -15.914887 -12.102224 -1.285933 24.279896 -2.458251
-100.154427 3.357524 52.287727 -11.758839 3.053517 105.635483 -3.568887 7.791659 9.019272 -10.346842 -2.316861 56.307850 80.280884 -22.180325 43.631348 3.604043 1.560209 -6.433306 -21.017149 -12.380486 -0.365721 1.905009 -23.679415 6.557765 -10.395318 -43.260262 -17.508360 -6.663262 32.260834 -0.558732 0.218195 -13.772098 -12.360296 -1.558172 23.837563 -1.333394
-98.115295 2.970794 52.533829 -11.410142 3.331731 105.079712 -4.175307 7.655274 10.267741 -10.169075 -1.885859 56.804745 81.108192 -21.299896 43.613125 3.623491 2.215718 -6.232914 -21.035097 -13.047912 -0.025560 2.183104 -25.088923 6.930957 -11.112645 -43.218639 -17.486046 -4.769767 25.462252 1.760667 0.925237 -10.458334 -13.358327 -2.262515 24.774660 0.708943
-96.577164 2.803797 52.568989 -11.059492 3.590392 104.729286 -4.831594 7.608731 11.254954 -9.836880 -1.839232 57.113434 81.846245 -20.916508 43.703045 3.601438 2.536934 -6.331578 -20.847120 -13.061956 0.133610 2.197389 -26.174402 7.093423 -11.276566 -42.964832 -15.200201 -2.329251 21.883759 1.741874 1.015546 -7.891477 -15.661454 -3.435521 26.407835 2.743838
-95.373024 2.671957 52.533829 -10.449714 3.671592 104.379639 -5.016754 7.611990 12.182782 -9.763967 -1.505492 57.682693 82.300941 -20.429747 43.428524 3.360641 2.657891 -6.372156 -20.612585 -12.940733 0.228094 2.261930 -26.019274 7.290523 -10.714406 -42.140686 -13.074332 -2.029622 21.212067 0.386600 0.926850 -6.110384 -18.384943 -4.887324 28.382322 4.974269
-93.193275 2.373119 52.296516 -9.762234 4.112478 104.291481 -5.796758 7.583678 13.082055 -9.509413 -1.121821 58.737331 83.054329 -20.040615 43.571747 3.409443 3.177205 -6.683378 -20.080290 -11.823810 -0.413294 2.655095 -26.321404 8.404430 -10.948498 -40.365788 -11.333180 -1.966779 23.258003 -2.435451 -0.371640 -5.080720 -22.034716 -7.245372 35.467190 6.696884
-91.918823 2.276437 52.226204 -9.432579 4.246861 104.389908 -6.119436 7.561625 13.489546 -9.283218 -0.964495 58.842659 83.424469 -19.691603 43.631313 3.335190 3.276418 -6.722022 -19.674078 -10.878304 -1.072490 3.094988 -26.329437 9.643794 -11.235834 -39.288589 -10.879697 -2.120747 25.152534 -4.519042 -1.432430 -5.857372 -23.588320 -9.471259 40.780235 8.308455
-89.721489 2.504959 52.147099 -8.854447 4.190221 105.107750 -6.532765 8.009029 13.810211 -8.999864 -1.021562 58.915718 84.293770 -19.299435 43.952652 3.407624 3.564636 -6.514387 -18.766289 -8.950274 -2.185879 4.243237 -24.718414 12.439487 -10.823945 -36.932430 -9.342713 -0.957422 29.437590 -7.824236 -3.168937 -8.536469 -27.269411 -15.532362 52.643318 12.579955
